# xmcd
# Copyright (C) 1995-1998 Ti Kan
#
# Track frame offsets:
#       150
#       13186
#       27065
#       42538
#       57378
#
# Disc length: 1068 seconds
#
# Revision: 0
# Processed by: cddbd v1.5.2PL0 Copyright (c) Steve Scherf et al.
# Submitted via: CD-Import v1.0
#
DISCID=3c042a05
DTITLE=Bucket - Kick The Bucket
DYEAR=2009
DGENRE=
TTITLE0=You're All I Want
TTITLE1=The Man
TTITLE2=Don't You Know
TTITLE3=Forget About Our Plans
TTITLE4=In The Past Few Days
EXTD=
EXTT0=
EXTT1=
EXTT2=
EXTT3=
EXTT4=
PLAYORDER=
